<svg height="40" width="40" viewBox="194 -104 1000 1000" fill="#0e9f6e" xmlns="http://www.w3.org/2000/svg">
    <g>
        <path d="M719.5,592.7c-37.6-180.3-49.2-385.8-51.6-434.7c-0.3-5.8-5-10.4-10.8-10.5c-0.1,0-0.2,0-0.2,0c-6.5-0.1-11.7,5.4-11.2,11.9C656,307,652.2,445.1,623.8,593c-144.6,5.2-254.6,31.8-254.6,63.8c0,35.7,613.2,35.7,613.2,0C982.4,624.2,868.1,597.2,719.5,592.7z" />
        <path d="M677.5,153.9c0.4,31.8,4.8,62.5,13.9,93.5c19.4,66,79.7,118.4,148.4,128.9c17.8,2.7,36,2.9,54,3c16.3,0.1,32.7,0.2,49,0.3c32,0.2,61.8-0.4,93.6-3.9c-38.2-14.1-62.5-51.3-78.5-88.4c-15.9-37.1-26.6-77.1-50.3-109.9c-25.1-34.7-64.2-59.1-106.7-66.5c-31.4-5.5-64.3-1.6-93.8,10.6c29.7,7.4,59.7,17.3,85.9,36.5c41.1,30.2,62.2,75.3,80.3,116.7c-9.1-8.8-16.2-18.5-23.8-28.2C808.2,193.6,737.5,156.1,677.5,153.9z" />
        <path d="M426,334.1c13-0.1,26-0.2,39-0.2c14.3-0.1,28.7-0.2,42.9-2.4c54.6-8.4,102.5-50,117.9-102.4c7.2-24.7,10.7-49,11-74.3c-47.6,1.8-103.9,31.6-136.8,73.6c-6,7.7-11.7,15.4-18.9,22.4c14.4-32.9,31.2-68.8,63.9-92.8c20.8-15.3,44.6-23.1,68.3-29c-23.4-9.7-49.6-12.8-74.5-8.4c-33.7,5.9-64.9,25.3-84.8,52.8c-18.8,26.1-27.3,57.9-40,87.4s-32,59-62.4,70.3C376.9,333.8,400.6,334.3,426,334.1z" />
    </g>
</svg>
