<?xml version="1.0" standalone="no"?>
<!DOCTYPE svg PUBLIC "-//W3C//DTD SVG 20010904//EN"
 "http://www.w3.org/TR/2001/REC-SVG-20010904/DTD/svg10.dtd">
<svg version="1.0" xmlns="http://www.w3.org/2000/svg"
 width="700.000000pt" height="700.000000pt" viewBox="0 0 700.000000 700.000000"
 preserveAspectRatio="xMidYMid meet">
<metadata>
Created by potrace 1.11, written by Peter Selinger 2001-2013
</metadata>
<g transform="translate(0.000000,700.000000) scale(0.100000,-0.100000)"
fill="#000000" stroke="none">
<path d="M6380 6588 c-35 -18 -57 -41 -97 -103 -195 -298 -302 -417 -567 -632
-42 -34 -186 -124 -276 -171 -182 -97 -446 -185 -614 -207 -27 -3 -52 -8 -55
-9 -22 -13 -256 -20 -781 -21 -536 -2 -750 -7 -800 -20 -8 -2 -33 -7 -55 -10
-51 -7 -162 -29 -205 -40 -97 -26 -214 -63 -255 -81 -16 -7 -59 -25 -95 -40
-204 -83 -429 -224 -605 -378 -304 -266 -523 -582 -665 -961 -4 -11 -12 -32
-18 -46 -9 -24 -48 -158 -57 -197 -20 -89 -46 -232 -50 -283 -4 -35 -8 -75
-11 -89 -11 -64 -2 -415 11 -428 2 -2 71 40 154 95 163 107 175 114 301 185
306 173 632 316 1000 438 98 32 442 127 495 136 17 2 38 7 47 10 33 10 376 72
438 79 25 3 56 7 70 10 14 2 45 7 70 9 25 3 72 7 105 11 33 3 74 8 90 10 17 2
66 7 110 10 291 22 601 30 652 16 114 -31 173 -158 124 -266 -21 -48 -67 -89
-113 -103 -18 -6 -136 -13 -263 -17 -126 -3 -246 -8 -265 -10 -19 -2 -77 -6
-128 -10 -52 -3 -101 -8 -110 -10 -9 -1 -48 -6 -87 -9 -38 -4 -81 -9 -95 -11
-14 -2 -74 -11 -135 -20 -711 -107 -1389 -348 -1965 -699 -643 -392 -1208
-965 -1528 -1551 -123 -224 -157 -326 -147 -434 23 -240 262 -403 492 -336
122 36 192 104 275 270 102 204 189 338 357 550 90 114 324 357 440 458 60 52
51 54 120 -36 56 -74 224 -245 314 -320 216 -181 474 -329 732 -420 70 -25
207 -65 248 -73 12 -2 33 -6 47 -9 68 -15 194 -33 270 -40 77 -7 314 -7 383
-1 31 3 83 8 115 11 63 6 200 23 247 31 17 3 39 7 50 8 66 9 343 79 441 111
286 96 573 237 807 399 49 34 99 68 111 76 125 84 432 371 573 535 81 93 232
295 296 395 321 500 540 1092 627 1697 17 119 19 133 25 198 3 33 8 80 11 105
9 78 12 621 3 705 -4 44 -11 112 -14 150 -4 39 -9 79 -11 90 -2 11 -6 40 -9
65 -36 305 -153 742 -280 1047 -55 129 -73 155 -130 182 -58 27 -110 27 -165
-1z"/>
</g>
</svg>
